# xmcd
#
# Track frame offsets: 
#        150
#        8582
#        24475
#        36935
#        46005
#        57787
#        68810
#        82612
#        92960
#        103695
#        118322
#        127375
#        137215
#        144627
#        153042
#        164362
#        173065
#        184315
#        190385
#        196072
#        203212
#        211987
#
# Disc length: 2891 seconds
#
# Revision: 2
# Processed by: cddbd v1.5.2PL0 Copyright (c) Steve Scherf et al.
# Submitted via: ExactAudioCopy v1.0b3
#
DISCID=340b4916
DTITLE=度会達也、下川直哉 - ファーランドストーリー 天使の涙
DYEAR=1994
DGENRE=Game
TTITLE0=度会達也 - 大地の羽ばたき
TTITLE1=下川直哉 - 一陣の風
TTITLE2=下川直哉 - 闇ルート
TTITLE3=下川直哉 - 大きい城
TTITLE4=下川直哉 - 討伐
TTITLE5=下川直哉 - 真の力
TTITLE6=下川直哉 - 都
TTITLE7=下川直哉 - 浮き世のうさを忘れた男
TTITLE8=下川直哉 - 死の門
TTITLE9=度会達也 - 熱砂の海
TTITLE10=度会達也 - 吹き抜ける予感
TTITLE11=度会達也 - 呼び声
TTITLE12=度会達也 - 雲のかけら
TTITLE13=度会達也 - 触れえぬ扉
TTITLE14=度会達也 - 誓い－
TTITLE15=度会達也 - 至高神
TTITLE16=下川直哉 - 奇妙
TTITLE17=下川直哉 - 意識
TTITLE18=度会達也 - 黄昏
TTITLE19=度会達也 - 足跡
TTITLE20=それから、ここで
TTITLE21=RE-VISION
EXTD=
EXTT0=
EXTT1=
EXTT2=
EXTT3=
EXTT4=
EXTT5=
EXTT6=
EXTT7=
EXTT8=
EXTT9=
EXTT10=
EXTT11=
EXTT12=
EXTT13=
EXTT14=
EXTT15=
EXTT16=
EXTT17=
EXTT18=
EXTT19=
EXTT20=
EXTT21=
PLAYORDER=
